<?xml version="1.0" standalone="no"?>
<!DOCTYPE svg PUBLIC "-//W3C//DTD SVG 20010904//EN"
 "http://www.w3.org/TR/2001/REC-SVG-20010904/DTD/svg10.dtd">
<svg version="1.0" xmlns="http://www.w3.org/2000/svg"
 width="462.000000pt" height="364.000000pt" viewBox="0 0 462.000000 364.000000"
 preserveAspectRatio="xMidYMid meet">
<metadata>
Created by potrace 1.15, written by Peter Selinger 2001-2017
</metadata>
<g transform="translate(0.000000,364.000000) scale(0.100000,-0.100000)"
fill="#000000" stroke="none">
<path d="M2020 3350 c0 -38 32 -80 84 -111 43 -26 56 -39 54 -54 -2 -15 -10
-19 -28 -18 -14 1 -68 4 -120 5 -93 3 -96 2 -140 -29 -27 -19 -77 -41 -124
-53 -44 -12 -110 -34 -148 -50 -76 -32 -203 -105 -214 -121 -10 -17 1 -20 30
-10 29 12 56 5 55 -13 0 -6 -34 -33 -75 -60 -42 -26 -79 -58 -83 -70 -10 -26
13 -165 34 -205 21 -41 20 -46 -19 -88 -43 -49 -56 -75 -56 -112 0 -42 -16
-78 -50 -118 -39 -44 -45 -73 -27 -127 12 -35 13 -60 6 -117 -11 -90 -2 -124
47 -185 37 -45 38 -45 53 -25 13 16 36 22 115 31 54 6 100 9 102 8 1 -2 11
-72 22 -155 11 -89 25 -159 33 -169 12 -15 29 -16 134 -11 66 3 215 18 330 32
163 20 213 30 223 43 11 13 13 55 10 182 -3 161 -3 165 18 168 20 3 21 -3 28
-121 4 -68 12 -146 19 -173 l12 -49 320 0 c266 0 325 3 350 15 l30 15 3 161 2
161 53 7 c28 3 75 6 103 6 50 0 52 -1 58 -31 10 -50 9 -53 -49 -134 -60 -84
-58 -86 37 -39 50 25 55 36 73 139 10 57 41 112 87 154 l40 38 -26 21 c-28 21
-64 67 -89 112 -8 14 -17 60 -20 102 -3 42 -14 96 -25 120 l-19 44 23 21 c45
40 24 163 -27 163 -24 0 -89 57 -105 92 -16 35 -16 38 7 79 13 24 39 54 58 66
l34 23 -51 0 c-27 0 -79 -9 -113 -20 -35 -10 -65 -17 -67 -15 -11 11 33 58 81
86 l52 31 -45 -7 c-25 -3 -56 -12 -70 -19 -14 -7 -38 -20 -54 -29 -28 -15 -32
-14 -97 19 -37 18 -83 47 -101 63 -54 47 -132 81 -185 81 -43 0 -59 7 -138 61
-97 67 -143 85 -247 98 -54 7 -80 17 -125 48 -80 54 -83 56 -83 43z m-123
-648 c-17 -19 -47 -84 -47 -102 0 -6 17 3 38 20 20 17 62 45 92 61 l55 30 -62
-58 c-41 -38 -76 -84 -102 -133 -23 -41 -41 -79 -41 -83 0 -5 22 16 49 45 38
42 76 68 163 112 62 33 127 69 143 81 28 21 37 22 130 15 68 -5 111 -13 135
-26 29 -16 62 -19 193 -22 150 -4 160 -3 181 17 l23 21 28 -52 c35 -65 152
-187 266 -279 47 -37 86 -74 86 -81 1 -7 11 -58 22 -112 12 -55 19 -101 17
-104 -3 -2 -52 9 -110 24 l-105 29 -7 41 c-3 23 -4 63 -2 90 l3 49 -85 0 c-84
0 -85 0 -122 37 -43 41 -130 78 -186 78 -49 0 -298 -137 -296 -163 1 -12 -6
-17 -27 -17 l-29 0 0 -95 c0 -94 0 -95 -24 -95 -22 0 -25 5 -31 58 -3 31 -8
71 -11 89 l-5 31 -262 -5 c-144 -3 -311 -8 -372 -12 l-110 -6 5 -50 c2 -27 4
-69 5 -93 l0 -43 -95 -40 c-52 -21 -101 -39 -108 -39 -15 0 -8 56 17 140 15
49 22 57 73 88 31 18 94 70 141 116 66 65 101 111 162 212 67 112 86 136 148
186 76 60 91 70 64 40z m905 -364 c37 -23 67 -55 55 -59 -9 -3 -432 -47 -434
-45 -8 8 163 120 200 132 57 18 122 8 179 -28z m191 -295 c4 -108 7 -243 7
-299 l0 -104 -27 -7 c-16 -4 -154 -7 -308 -8 l-280 0 -7 45 c-8 60 -31 491
-25 496 2 2 143 19 313 38 170 19 312 34 315 35 3 1 9 -87 12 -196z m-801 37
c16 -162 30 -462 22 -470 -10 -10 -352 -54 -506 -65 -96 -7 -97 -7 -102 16 -7
28 -42 350 -51 459 -3 41 -8 85 -11 97 -4 22 -3 22 138 26 79 1 224 3 323 2
l180 0 7 -65z"/>
<path d="M1815 2376 c-27 -13 -63 -38 -80 -57 -30 -33 -30 -33 14 4 53 44 109
61 169 53 54 -7 80 -21 181 -96 66 -49 88 -60 108 -55 13 3 23 11 20 18 -2 6
-57 43 -123 81 -106 62 -125 70 -179 73 -47 2 -71 -2 -110 -21z"/>
<path d="M2795 2174 c-11 -1 -94 -10 -185 -20 -91 -9 -174 -21 -185 -25 -14
-6 -10 -7 15 -4 130 18 335 37 413 38 l92 2 0 -240 0 -240 -250 -5 -250 -6
255 1 255 0 0 250 0 250 -70 1 c-38 1 -79 0 -90 -2z"/>
<path d="M2509 1961 c-75 -76 4 -201 102 -161 94 40 66 190 -36 190 -27 0 -44
-8 -66 -29z"/>
<path d="M1650 2101 c-74 -6 -75 -6 -78 -36 -5 -39 27 -388 39 -437 8 -32 14
-38 37 -38 59 1 463 48 470 54 4 4 -9 5 -28 2 -111 -18 -453 -47 -462 -38 -14
14 -54 460 -42 472 5 5 126 13 269 18 l260 9 -195 0 c-107 0 -229 -3 -270 -6z"/>
<path d="M1951 1936 c-86 -48 -54 -186 44 -186 99 0 133 140 45 185 -35 18
-57 19 -89 1z"/>
<path d="M2052 1343 c2 -10 33 -33 72 -53 61 -31 78 -35 145 -35 65 0 83 4
124 28 26 15 47 34 47 42 0 20 -6 19 -44 -4 -83 -51 -190 -48 -280 9 -54 34
-69 37 -64 13z"/>
<path d="M1586 1217 c-59 -104 -147 -290 -140 -296 5 -5 51 -36 102 -71 l93
-63 -6 -41 c-7 -40 -11 -51 -54 -131 -18 -33 -22 -56 -21 -130 0 -146 -19
-283 -39 -271 -10 7 -45 -23 -37 -31 4 -4 10 -3 14 2 4 6 14 11 22 13 9 1 5
-6 -9 -18 -33 -29 -20 -35 41 -21 45 10 53 9 60 -4 14 -23 41 -19 33 5 -3 11
-2 20 4 20 5 0 13 -9 16 -20 10 -31 39 -26 31 5 -9 36 13 32 25 -5 6 -17 18
-30 26 -30 12 0 14 8 8 36 l-6 37 113 -6 c62 -3 157 -15 212 -26 125 -27 150
-26 299 4 136 27 202 32 294 21 60 -8 63 -9 57 -32 -5 -18 -2 -24 11 -24 9 0
19 9 22 20 3 11 10 20 15 20 6 0 8 -9 5 -20 -4 -15 0 -20 14 -20 10 0 19 7 19
15 0 8 5 15 10 15 6 0 10 -7 10 -15 0 -8 7 -15 15 -15 8 0 15 5 15 11 0 13 27
8 77 -12 39 -16 53 -6 28 21 -17 19 -17 21 1 41 19 21 19 22 -3 15 -18 -6 -20
-4 -16 14 3 12 0 20 -7 20 -7 0 -10 7 -6 16 4 9 0 25 -9 34 -9 9 -15 34 -14
56 4 203 4 208 -20 254 -24 45 -51 130 -51 161 0 11 32 31 95 59 52 24 95 46
95 50 0 36 -138 320 -155 320 -3 0 -35 -19 -72 -41 -89 -55 -128 -71 -308
-131 -123 -40 -167 -50 -246 -55 -108 -6 -186 10 -252 53 -21 14 -67 34 -102
45 -64 19 -220 115 -259 158 -25 27 -28 27 -50 -12z"/>
</g>
</svg>
