<svg xmlns="http://www.w3.org/2000/svg" xmlns:xlink="http://www.w3.org/1999/xlink" viewBox="0 0 609.69 589.73"><defs><style>.cls-1{fill:#ececec;}.cls-2{fill:url(#未命名漸層_13);}.cls-3{fill:#ccc;}.cls-4{fill:url(#未命名漸層_2);}.cls-5{fill:url(#未命名漸層_13-2);}.cls-6{fill:url(#未命名漸層_13-3);}.cls-7{fill:url(#未命名漸層_13-4);}.cls-8{fill:url(#未命名漸層_13-5);}.cls-9{fill:url(#未命名漸層_15);}.cls-10{fill:#cda809;}.cls-11{fill:url(#未命名漸層_13-6);}.cls-12{fill:#636363;}.cls-13{fill:url(#未命名漸層_13-7);}.cls-14{fill:url(#未命名漸層_13-8);}.cls-15{fill:url(#未命名漸層_13-9);}.cls-16{fill:#070707;}.cls-17,.cls-18,.cls-19,.cls-20{stroke:#000;}.cls-17{fill:url(#未命名漸層_13-10);}.cls-18{stroke-width:1.49px;}.cls-19{fill:url(#未命名漸層_13-11);}.cls-20{stroke-width:0.94px;}.cls-21{fill:url(#未命名漸層_15-2);}.cls-22{fill:url(#未命名漸層_15-3);}</style><linearGradient id="未命名漸層_13" x1="262.73" y1="193.5" x2="357.62" y2="314.34" gradientTransform="matrix(1.66, 0, 0, -1.57, -315.88, 625.87)" gradientUnits="userSpaceOnUse"><stop offset="0"/><stop offset="1" stop-color="#fff"/></linearGradient><linearGradient id="未命名漸層_2" x1="526.95" y1="187.49" x2="541.25" y2="205.43" gradientTransform="matrix(1.59, 0, 0, -1.59, -290.41, 633.27)" gradientUnits="userSpaceOnUse"><stop offset="0" stop-opacity="0.72"/><stop offset="1" stop-color="#fff" stop-opacity="0"/></linearGradient><linearGradient id="未命名漸層_13-2" x1="276.91" y1="231.89" x2="444.57" y2="310.7" gradientTransform="matrix(1.78, 0, 0, -1.9, -374.55, 741.87)" xlink:href="#未命名漸層_13"/><linearGradient id="未命名漸層_13-3" x1="582.53" y1="130.53" x2="409.69" y2="314.39" gradientTransform="matrix(1.59, 0, 0, -1.59, -290.41, 633.27)" xlink:href="#未命名漸層_13"/><linearGradient id="未命名漸層_13-4" x1="333.04" y1="250.85" x2="430.26" y2="300.19" gradientTransform="matrix(1.59, 0, 0, -1.59, -290.41, 633.27)" xlink:href="#未命名漸層_13"/><linearGradient id="未命名漸層_13-5" x1="222.57" y1="241.51" x2="355.34" y2="300.12" gradientTransform="matrix(1.59, 0, 0, -1.59, -290.41, 633.27)" xlink:href="#未命名漸層_13"/><linearGradient id="未命名漸層_15" x1="344.24" y1="223.44" x2="403.84" y2="261.65" gradientTransform="matrix(1.59, 0, 0, -1.59, -290.41, 633.27)" gradientUnits="userSpaceOnUse"><stop offset="0" stop-color="#ffba00"/><stop offset="1" stop-color="#ffffba"/></linearGradient><linearGradient id="未命名漸層_13-6" x1="265.67" y1="175.45" x2="194.03" y2="202.33" gradientTransform="matrix(1.59, 0, 0, -1.59, -290.41, 633.27)" xlink:href="#未命名漸層_13"/><linearGradient id="未命名漸層_13-7" x1="374.39" y1="250.43" x2="379.08" y2="403.99" gradientTransform="matrix(1.59, 0, 0, -1.59, -290.41, 633.27)" xlink:href="#未命名漸層_13"/><linearGradient id="未命名漸層_13-8" x1="334.32" y1="323.51" x2="339.53" y2="352.8" gradientTransform="matrix(1.59, 0, 0, -1.59, -290.41, 633.27)" xlink:href="#未命名漸層_13"/><linearGradient id="未命名漸層_13-9" x1="415.22" y1="314.19" x2="415.86" y2="341.68" gradientTransform="matrix(1.59, 0, 0, -1.59, -290.41, 633.27)" xlink:href="#未命名漸層_13"/><linearGradient id="未命名漸層_13-10" x1="354.8" y1="274.62" x2="371.96" y2="296.45" gradientTransform="matrix(1.79, 0, 0, -1.59, -364.7, 633.27)" xlink:href="#未命名漸層_13"/><linearGradient id="未命名漸層_13-11" x1="354.8" y1="264.82" x2="371.96" y2="286.64" gradientTransform="matrix(1.6, 0, 0, -1.38, -256.99, 559.93)" xlink:href="#未命名漸層_13"/><linearGradient id="未命名漸層_15-2" x1="282.77" y1="39.22" x2="304" y2="99.52" gradientTransform="matrix(1.73, 0, 0, -1.89, -333.71, 658.9)" xlink:href="#未命名漸層_15"/><linearGradient id="未命名漸層_15-3" x1="282.77" y1="39.22" x2="304" y2="99.52" gradientTransform="matrix(1.73, 0, 0, -1.89, -52.55, 658.9)" xlink:href="#未命名漸層_15"/></defs><title>資產 1</title><g id="圖層_2" data-name="圖層 2"><g id="svg2"><g id="layer1"><path id="path17935" class="cls-1" d="M162.76,495.1s-8.6-12.91-10-15.77S127.62,386.11,133.36,356s7.89-53.06,12.91-59.51S180,254.18,183.55,252s18.64-26.53,28-26.53,76,30.12,84.61,28.68,45.89-1.43,48.76-3.59,13.62-10.76,13.62-10.76l10-5.74s22.95-2.15,27.25-2.15,31.55,15.77,38.72,23.66,52.34,59.51,51.63,86.76,0,48.76-2.87,56.65-10.76,35.85-12.91,43.74-6.45,24.38-7.17,30.83-8.6,12.91-11.47,15.77-40.15,8.6-47.32,11.47-29.4,18.64-35.85,21.51-20.79,12.91-20.79,12.91-20.08,20.08-24.38,22.23-40.87,9.32-53.78,1.43-27.25-21.51-33.7-29.4-20.79-22.95-25.81-27.25S162.76,496.54,162.76,495.1Z"/><path id="path6186" class="cls-2" d="M303,172.39c0,42.31-25.87,76.62-57.8,76.63s-57.82-34.28-57.83-76.59v0c0-42.31,25.87-76.62,57.8-76.63S303,130.05,303,172.36Z"/><path id="path6184" class="cls-3" d="M165.95,491.68s-15.23-43.78-15.7-79-2.38-55.67,4.28-82.32,6.66-30,6.66-30l-34.26,65.67s-5.23,29-5.71,31.88,4.28,55.2,4.28,55.2l5.23,18.08,11.42,18.08,6.66,6.19Z"/><path id="path4226" class="cls-3" d="M447.13,492.63s15.23-43.78,15.7-79,2.38-55.67-4.28-82.32-6.66-30-6.66-30L486.15,367s5.23,29,5.71,31.88-4.28,55.2-4.28,55.2l-5.23,18.08-11.42,18.08-6.66,6.19Z"/><path id="path2253" class="cls-4" d="M507.84,271.84l2.07,8.28,86.49,88.14,8.28,7,3.31-1.66-3.72-10.76-12-17-15.31-16.55-25.66-21.93-16.55-13.24-14.07-12.83-5.79-5.79-2.48-2.07Z"/><path id="path10113" class="cls-5" d="M426.08,175.49c0,29.24-26.86,53-60,53s-60.09-23.67-60.11-52.9v-.07c0-29.24,26.86-53,60-53s60.09,23.67,60.11,52.9Z"/><path id="path13048" class="cls-6" d="M389.08,207.13s12.85-1,18.56-3.33,13.8-8.09,13.8-8.09,12.37-22.84-5.71-49.49-63.29-21.41-63.29-21.41l-5.71,3.33Z"/><path id="path12067" class="cls-7" d="M349.59,128.14h0s26.65,4.76,42.35,35.21-1,44.25-1,44.25-31.41,6.19-50.44-3.81-28.07-43.3-28.07-43.3,1-10.94,15.23-20.46S350.06,128.62,349.59,128.14Z"/><path id="path7165" class="cls-8" d="M206.36,118.63s-4.76,42.83,14.75,68.52,53.29,36.16,53.29,36.16,10-47.58-8.57-71.85S206.36,118.63,206.36,118.63Z"/><path id="path3205" class="cls-9" d="M253.76,229.54c-.73.18-2.37,5.1-2.37,5.1A11.42,11.42,0,0,0,251,239c.36,1.82,0,3.46.91,4.92s43.15,48.25,43.15,48.25,2.73,4.37,7.65,3.82,6.55-1.09,8-2,37-36.59,37-36.59l12.56-16a25.21,25.21,0,0,0,.55-7.28c-.36-3.46-6-9.1-6-9.1a74.51,74.51,0,0,0-6.92-4.19c-1.46-.55-23.12-9.83-37-10.2s-35.68,5.28-35.68,5.28Z"/><path id="path2227" class="cls-10" d="M96.23,587.5C82.39,582.56,77,573.42,78,556.45,79.42,532,95,514.22,128.19,498.92c20.32-9.35,32.76-11.49,61.62-10.57,20.4.64,25.94,1.4,37.47,5.1,25.68,8.25,47.14,23.76,56.37,40.72,4.82,8.86,7,23.52,5,34-1.38,7.38-7.93,15-16,18.69-6,2.71-12.23,2.92-88.39,2.89C119,589.69,101.1,589.24,96.23,587.5ZM184.94,569c34.45-1.72,35.26-1.84,39.52-5.84,14.81-13.91,9.89-38.46-10.51-52.39-12.82-8.75-26.75-12.11-46.82-11.28-27.46,1.14-46.26,10.86-55,28.48-7,14.05-4.33,29.06,6.85,38.47C125.06,571.55,129.62,571.73,184.94,569Zm154.54,18.95c-2.63-.91-7.39-4.15-10.58-7.2-21.39-20.42-3.14-61.29,35.67-79.84,19.87-9.5,37.61-13.3,61.61-13.21,24.51.1,33.26,1.76,52.43,10,18.82,8.07,29.69,15.25,39.76,26.26,12.87,14.08,18.13,35,12.31,48.93-2.77,6.62-10.58,13.21-18.17,15.32C504.44,590.4,346,590.17,339.48,587.91Zm164.82-21.5c21.23-17.86,9.84-50.31-22-62.67-12.83-5-38.21-6.07-52.35-2.24-34.18,9.25-50.5,40.41-31.84,60.78l5.15,5.62,23,1.17c12.65.65,34.23,1.28,48,1.42l24.94.25ZM297.85,296.53c-1.89-1.06-13.52-13.39-25.85-27.4-20.42-23.21-22.41-26-22.42-31.54,0-3.34.73-7.46,1.64-9.16,2.05-3.84,16-10.93,31.95-16.26,20.57-6.87,40.81-3.87,68.49,10.15a41,41,0,0,1,8.36,5.49c3.11,3.11,3.32,10.22.41,14.2-1.95,2.67-2.08,2.49-1.44-1.87,1-6.74-3.37-14.21-10.37-17.77-16.08-8.18-40.14-12.57-54.08-9.86-11.61,2.25-26.66,8.46-26.66,11,0,1.16,4.65,3.73,10.34,5.73,20.56,7.19,37.75,18.11,48.71,30.91,3.11,3.63,6.46,6.6,7.45,6.6s5-3,8.84-6.76c10.75-10.34,5.36-2.33-11.17,16.59C313.8,297.46,306.79,301.55,297.85,296.53Zm12.55-5.66c1.76-1.71-53.68-58.21-55.83-56.89-1,.62-1.82,3.22-1.82,5.78,0,3.75,4.2,9.29,21.59,28.46,11.87,13.09,22.79,24.13,24.27,24.54C301.72,293.61,308.72,292.49,310.39,290.87Z"/><path id="path6164" class="cls-11" d="M97.46,273.15S70.74,298.06,63,304.85s-18.34,13.81-30.79,26S8.7,357.15,8,358.51s-4.53,7-4.3,10.42-.91,7.92,1.59,7,52.3-47.55,55.7-51.4S88.63,296.25,93.61,291a51.33,51.33,0,0,0,7.92-11.09l1.59-5.21.23-1.59Z"/><path id="path2225" class="cls-12" d="M282.51,579.79c6-6.82,7.56-13.56,6.45-27.35a44.38,44.38,0,0,0-5.3-18.28c-5.26-9.66-19.12-23-31.17-30-4.67-2.72-7.88-5-7.13-5,2.91-.08,24.67,12.33,36,20.53,6.57,4.75,14.46,9.52,17.52,10.6,7.18,2.53,10.86,1,28.65-11.81a181.76,181.76,0,0,1,27.85-16c19.91-8.67,24.9-9.67,9.15-1.83-38.63,19.21-56.24,57.7-36.41,79.54l5,5.49-6.17-4.53c-5.45-4-7.85-4.61-20.69-5.26-14.39-.72-14.59-.68-21.68,4.5l-7.16,5.22ZM127.24,476.95C104.93,443.27,93.15,409,90.65,370.66c-.58-8.93-1.81-17-2.73-17.92-3.12-3.12-20.26,4-47.64,19.76-26.65,15.35-28.19,16-33.51,13.43-3.9-1.86-4.82-3.44-5.53-9.38-1-8.68,1.76-15.13,12.21-28.18C25.56,333.22,32.95,326,53,310c57.17-45.88,71.58-72.34,75.6-138.88,1.65-27.23,2.69-33.65,8.23-50.74C154.46,66,203.16,20.7,259.89,5.84,322.37-10.52,387.84,8,433,54.83c32.62,33.84,46.06,66.2,49,118,3.7,65.06,18.39,91.53,76.67,138.2,30.53,24.45,50.71,49.3,51,62.85.19,8-1.85,11.42-7.66,12.88-4.45,1.12-9.84-1.38-38.88-18-22-12.61-37.55-18.64-40.89-15.86-1.35,1.12-2.13,5.32-2.14,11.52,0,12.94-3.71,35.17-8.79,52.77-6.7,23.23-17.85,44.89-39.15,76-.58.85-2.39.7-4.35-.35-3.32-1.78-3.29-1.88,2-9.32a128.11,128.11,0,0,0,8-12.69c2.35-4.64,2.37-5.17.13-5.17-1.9,0-2.45-1.62-2.33-6.76.09-3.72-.1-23.24-.41-43.37-.48-31.22-1.1-38.93-4.23-52.43-11.5-49.71-34.08-89.43-64.64-113.76-16.2-12.89-22.56-15.4-34.17-13.48l-9.32,1.54-.65-4.44c-.61-4.15-.28-4.44,5-4.46,14.21,0,34.55-9,43.78-19.17,7.62-8.43,12.63-22.31,12.61-34.92,0-25.29-22.2-46.41-51.27-48.85-9-.76-13.34-.26-22.15,2.58C338,132.09,325.56,140.64,319.9,149l-3.74,5.53-6.6,21c2.91.54,16.29-18.91,15.2-18.79-3.14.33-2.31,5.35,1.7,10.37,3.21,4,4.11,4.36,7.15,2.73,4.32-2.31,4.33-3.34.13-9.1-2.5-3.43-1.93-3.12,2.27,1.22,12.66,13.09-5.62,26.25-8.49,42.93-.09.55-10.55-5-10-4.17.63,1,1.05,8.79-7.63,8.06-7.35-.62-4.38-23.48-7.37-23.47-13.76.05-32.94,11.62-33-7.66,0-9.78.63-13,3.67-17.9,3.46-5.57,8.23-8.07,8.23-4.31,0,.91,1.61,4,3.58,6.76s3.72,5.37,3.9,5.7c1,1.7,8.43-1.82,8.43-4,0-1.69.87-2.19,2.61-1.52,4.6,1.76,1.64-15.39-4.95-28.72C278.6,100.52,245.69,89,218.53,106.89c-17.19,11.32-31,40.32-31,65.16,0,11.77,4.06,28.95,9.44,39.89,6.87,14,22.21,28.29,34,31.73,5,1.45,11.53,2.41,14.57,2.15,5.32-.46,6.36.47,27.17,24.15,11.9,13.54,23.45,25.59,25.66,26.76,6.8,3.61,13.68,1.1,22.37-8.15l15.27-16.26c6.36-6.78,7.22-7.3,5.84-3.47-7.23,20-22.83,34.51-37,34.51-9.56,0-17-5.65-33.58-25.45-13.64-16.31-20.41-22.38-28.42-25.47-2.87-1.11-10-4.17-15.94-6.81l-10.72-4.79-6,4c-26.25,17.44-50.11,52.75-64,94.66-8.9,26.88-11.6,45.31-11.16,76.08.51,35.81-.45,50.13-3.38,50.13-2.2,0,1.39,7.92,7.37,16.24,6.31,8.79,6.61,10.15,2.47,11.23C139.12,493.78,136.19,490.45,127.24,476.95ZM489.88,462.5c.94-1.75,1.35-3.18.91-3.18s-1.56,1.43-2.5,3.18-1.35,3.18-.91,3.18S488.94,464.25,489.88,462.5Zm18.26-40.64c5.06-14.79,8.81-34.92,9.84-52.9,1.35-23.44,1.84-24.08,15-19.64A147.47,147.47,0,0,1,552.74,358c23.82,13.07,39.41,22.57,40.13,24.46.93,2.41,10.95,2.79,12.38.46.54-.88,0-1.59-1.12-1.59s-7.11-5.84-13.22-13-19-19.94-28.63-28.44-25-23.25-34.22-32.77c-15-15.58-17.15-18.51-21.11-29.25-2.42-6.56-4.39-13.89-4.38-16.29s-2.05-7.77-4.6-11.94c-9.38-15.4-15.71-42.6-17.68-76-2-34.34-6.24-51.82-18.3-75.86C440.32,54.52,399.24,21.2,351.42,8,332.67,2.89,296.51,1,277,4.1c-57.11,9.15-108,47.66-131.88,99.77-9,19.55-13.27,39.07-14.91,67.42-2.07,35.8-8.07,61-19.07,80.26-2.68,4.68-4.43,9.6-3.9,11,1,2.59-3.48,16-8.75,26.18-3.06,5.93-32.81,35.85-56.82,57.14a273.15,273.15,0,0,0-23,23.47c-5.56,6.61-11.07,12-12.24,12s-1.69.72-1.15,1.59c1.6,2.59,9.09,1.82,12.63-1.3,4-3.56,30.13-18.9,43.07-25.34,14.15-7,26.17-10.69,28.27-8.59.95.95,2.31,10.47,3,21.17,1.5,22.3,6.92,46.71,14.24,64.14,5.25,12.51,8.14,16,3.53,4.3-1.44-3.67-2.19-7.09-1.66-7.62s5.69,3.06,11.48,8,11,8.93,11.63,8.93,1.12-13.79,1.13-30.64c0-22.77.75-34.31,2.85-45,10.37-52.65,34-95.21,69.49-125.24l8.71-7.36-7.38-7.89C179,201.28,177.62,150,203.34,117.43q12-15.22,33.65-20.89l11.78-3.09-8-.06c-10.79-.09-25,3.46-37.44,9.33-13.16,6.22-14.48,3.72-3.41-6.46,12.18-11.2,22.69-14.81,43.27-14.87,15.73,0,17.38.26,27.25,5.12,10.43,5.13,26,19.49,22.48,20.68-1,.32-5.23-1.14-9.46-3.26a90.47,90.47,0,0,0-23.6-8.15c-2.92-.59-.76,1,5.57,4.11,19.21,9.43,34.11,29.52,38.75,52.25,1.05,5.16,2.34,9.81,2.86,10.33s2.84-2.94,5.17-7.69c11-22.48,39.7-36.24,65.64-31.46,20.1,3.7,36.73,15.53,44.72,31.8,5.83,11.87,6.23,30.36.92,41.95-5.11,11.14-16.86,22.83-28.59,28.42-5.55,2.65-10.09,5-10.09,5.3S389,234,394,237.33c30.28,20,56.75,56.35,71,97.48,9.81,28.26,12.84,47.65,12.82,81.93,0,16.41.5,29.84,1.13,29.84s5.67-3.94,11.19-8.75c14.33-12.49,15.32-11.84,7.67,5-2.63,5.79-4.71,11-4.64,11.5C493.43,456,505.26,430.26,508.14,421.86Zm-83-299.73c-8.22-7.44-23.67-15.81-34.52-18.69-12.24-3.26-32.18-2.8-44.55,1A97.87,97.87,0,0,0,325,114.8c-5.84,3.91-11.11,7.11-11.72,7.11s-3.39-3.52-6.18-7.82C291.71,90.35,261,75,235.29,78.18c-18,2.25-40.69,14.44-50.33,27.08-5.35,7-7,7-7-.22,0-18.26,11.4-42.07,28.88-60.31C234,16.38,271.13,2.67,315.61,4.59,381.15,7.41,433.5,51.6,437,107c.89,14.18-.19,21.29-3.23,21.19C432.67,128.18,428.79,125.45,425.14,122.14ZM337.89,103.5c10.34-4.22,12.69-4.55,32.63-4.58,20.56,0,22,.19,34.22,5.11,8.11,3.28,15.47,5.14,20.29,5.15h7.56V101.4c0-31.78-29.78-68.58-68.39-84.5-19.3-8-33.29-10.38-58.93-10.2C278,6.89,264.74,9.85,242.4,20.77c-31.8,15.55-54.09,42.62-59.67,72.48-.74,4-1.13,7.4-.86,7.66s5-3,10.61-7.18C209,81.25,220.55,76.84,238.73,76.06c12.46-.53,17.51,0,26.26,2.66,12.63,3.87,27,12.87,37.09,23.3,7.07,7.28,7.27,7.36,15.91,6.7C322.81,108.35,331.76,106,337.89,103.5ZM326.3,120.07c1.06-3.17,15.91-10.63,26.65-13.38,20.45-5.24,48.28-.56,59.71,10l4.75,4.4-4.2.49c-2.31.27-10.08-.63-17.26-2-16.51-3.13-39.06-3.17-55.14-.09C325.82,122.4,325.52,122.41,326.3,120.07Zm85.08-1.18c-2.86-1.31-14.32-11.17-39.63-11.87-18.66-.51-31.58,7.51-34.44,8.82-4.31,2,14-2.12,34.79-2.12S415.69,120.86,411.38,118.89ZM99.27,279.16c4.15-7.82,2.41-6.89-10.05,5.33-6.78,6.65-20.93,18.89-31.43,27.19C28.26,335,6.13,360.39,6.08,371,6.06,374.54,95.32,286.6,99.27,279.16Zm505.19,91.78c0-3.07-5.71-13.33-11.73-21.07-9.51-12.23-24.23-26.17-41.59-39.4-7.88-6-20.59-17-28.25-24.42-13.72-13.31-15.64-14.52-12.17-7.66,2,3.89,90.64,93.4,92.53,93.4C603.92,371.78,604.46,371.4,604.46,370.94ZM314.22,203.48a70.33,70.33,0,0,1-4.14-11.34c-1.16-4.31-2.44-6.4-3.36-5.48-1.91,1.91-6.21,18.38-5.21,20,.41.67,4,1.22,7.86,1.22h7.11Zm-15.28-10.34c3.11-6.84,4.12-19.46,1.86-23-1-1.52-2.58-1.53-7.42,0-4.06,1.25-6.37,1.34-6.72.29-1.47-4.41-6.57-12.52-8.22-13.07-2.7-.9-6.6,9.53-6.6,17.67,0,11.22,11.8,24.59,22,24.9C294.94,199.87,297.25,196.86,298.94,193.14Zm38.35,1.63c2.92-5.46,4.48-14.08,3.46-19.15-.93-4.66-2.5-4.94-10.47-1.89-1.56.6-3.73-1.5-6.58-6.36-2.34-4-5-7.25-5.86-7.25-2.51,0-6.22,10.37-6.22,17.39,0,5.39,1,7.27,6.5,12.39C328.1,199.14,334.12,200.68,337.29,194.77Zm-50.52-92.43c-8-5.85-18.13-20.05-50.43-18.46-16.56.81-35.06,14.63-35.7,14.89-2.34.95,26.71-7.88,42-7.86C265.68,90.94,289.1,104,286.77,102.34Zm92.14,391a3.2,3.2,0,0,1,3.05-.13c1.27.51.89.89-1,1C379.31,494.27,378.37,493.9,378.9,493.37Z"/><path id="path14027" class="cls-13" d="M171.49,110.22l3.55,5.58,8.62,1s15.72-7.1,18.76-8.62S234.86,97,234.86,97l14.2-1.52,37,11.66,27.38,23.32,20.28-4.56,31.44-5.07,34,1.52,31.94,9.13s12.68,0,13.18-2,4.06-25.35,2.54-30.93-9.13-27.89-13.18-32.45-23.32-23.32-25.35-25.35-23.32-17.24-26.87-19.27-27.89-11.15-27.89-11.15l-50.2-6.59L281,4.76l-30.42,7.1L206.47,39.23,185.18,65.09,175,84.86Z"/><path id="path15977" class="cls-14" d="M190.54,109.51l-.18-4.12,4.12-6.63,9.32-7.71s9.5-5.2,10.22-5.38,10.58-5,14.34-5,17.21-.54,17.21-.54,10.58.18,11.47.36S264.76,83,264.76,83l14.16,5.92,16.31,13.62s2.33,4.12,2,5a13.16,13.16,0,0,1-1.79,2.51,68.35,68.35,0,0,1-7.53-1.79c-1.79-.72-7.35-2.51-8.07-2.87s-8.25-4.3-9.68-4.48-10.58-3-10.58-3L252,96.25,245.22,95l-8.78.36-27.79,7.17-10.22,4.66-5.74,2Z"/><path id="path16956" class="cls-15" d="M320.86,126.9s12.19-1.25,15.77-2.51S358,121,359.22,120.81s19.54-1.08,24.74,0,24.56,4.12,26,4.12,9.14-.36,9.14-.36,2-3.59,1.08-4.66A16.94,16.94,0,0,0,416,117c-1.25-.72-9.68-5.38-11.11-6.45s-16.67-6.27-17.57-6.27-16.49-.9-20.61-.9-14.88,1.25-16.49,2-11.29,4.3-12.91,5-6.45,2.69-8.25,4.48a34.94,34.94,0,0,0-4.3,5.2C324.45,120.81,321.4,126.9,320.86,126.9Z"/><path id="path9083" class="cls-12" d="M306.3,184l-4.95,12.37-4.95,12.92a54.89,54.89,0,0,1,10.44-.55c5.5.27,14,1.65,14,1.65l-2.75-3.85-2.2-3.85a27.56,27.56,0,0,1-3.57-6.6c-1.1-3.3-2.47-8-2.47-8L308,184.55Z"/><path id="path2223" class="cls-16" d="M488.28,462.5c.94-1.75,2.06-3.18,2.5-3.18s0,1.43-.91,3.18-2.06,3.18-2.5,3.18S487.35,464.25,488.28,462.5Zm4.91-8.14c-.08-.54,2-5.71,4.64-11.5,7.65-16.87,6.65-17.52-7.67-5-5.52,4.81-10.56,8.75-11.19,8.75s-1.14-13.43-1.13-29.84c0-34.28-3-53.67-12.82-81.93-14.28-41.14-40.75-77.46-71-97.48-5-3.33-9.15-6.27-9.15-6.54s4.54-2.66,10.09-5.3c11.73-5.6,23.48-17.28,28.59-28.42,5.32-11.59,4.91-30.08-.92-41.95-8-16.27-24.62-28.1-44.72-31.8-25.94-4.78-54.64,9-65.64,31.46-2.32,4.75-4.65,8.21-5.17,7.69s-1.8-5.17-2.86-10.33c-4.64-22.72-19.54-42.82-38.75-52.25-6.33-3.11-14.05-5.24-11.13-4.65,8.54,1.73,21.33,4.76,29.16,8.69,4.23,2.12,8.48,3.59,9.46,3.26,3.56-1.19-12.06-15.54-22.48-20.68-9.87-4.86-11.53-5.17-27.25-5.12-20.57.06-31.09,3.68-43.27,14.87-11.07,10.18-9.75,12.68,3.41,6.46,12.41-5.87,26.65-9.42,37.44-9.33l14.05,1.86L237,96.53q-21.59,5.65-33.65,20.89C177.62,150,179,201.28,206.28,230.5l7.38,7.89L205,245.75c-35.51,30-59.12,72.58-69.49,125.24-2.1,10.65-2.83,22.19-2.85,45,0,16.85-.53,30.64-1.13,30.64s-5.84-4-11.63-8.93-11-8.5-11.48-8,.22,4,1.66,7.62c4.6,11.72,1.72,8.21-3.53-4.3-7.31-17.43-12.73-41.83-14.24-64.14-.72-10.7-2.09-20.22-3-21.17-2.1-2.1-14.12,1.56-28.27,8.59-12.95,6.44-39,21.78-43.07,25.34-3.54,3.12-11,3.89-12.63,1.3-.54-.88,0-1.59,1.15-1.59s6.68-5.41,12.24-12a273.15,273.15,0,0,1,23-23.47c24-21.29,53.76-51.21,56.82-57.14,5.27-10.2,9.74-23.6,8.75-26.18-.53-1.37,1.22-6.29,3.9-11,11-19.23,17-44.46,19.07-80.26,1.64-28.35,6-47.87,14.91-67.42C169,51.76,219.89,13.25,277,4.1,296.51,1,332.67,2.89,351.42,8,399.24,21.2,440.32,54.52,462,97.78c12.05,24,16.27,41.52,18.3,75.86,2,33.42,8.3,60.62,17.68,76,2.54,4.17,4.61,9.54,4.6,11.94s2,9.72,4.38,16.29c4,10.74,6.08,13.67,21.11,29.25,9.19,9.52,24.59,24.27,34.22,32.77s22.51,21.3,28.63,28.44,12.07,13,13.22,13,1.66.72,1.12,1.59c-1.44,2.32-11.46,1.95-12.38-.46-.72-1.89-16.32-11.39-40.13-24.46A147.47,147.47,0,0,0,533,349.32c-13.17-4.43-13.65-3.8-15,19.64-1,18-4.78,38.1-9.84,52.9C505.26,430.26,493.43,456,493.2,454.36ZM436.75,124.14c.57-2.28.67-10,.23-17.11C433.5,51.6,381.15,7.41,315.61,4.59,271.13,2.67,234,16.38,206.82,44.73,189.34,63,177.94,86.79,177.94,105c0,7.18,1.66,7.24,7,.22,9.64-12.64,32.29-24.83,50.33-27.08C261,75,291.71,90.35,307.1,114.1c2.79,4.3,5.57,7.82,6.18,7.82s5.89-3.2,11.72-7.11a97.87,97.87,0,0,1,21.07-10.34c12.37-3.82,32.31-4.28,44.55-1,10.85,2.89,26.3,11.26,34.52,18.69C433,129.29,435.35,129.69,436.75,124.14Zm-95.93-4.61c16.09-3.08,38.63-3,55.14.09,7.18,1.36,15,2.26,17.26,2l4.2-.49-4.75-4.4c-11.44-10.59-39.27-15.27-59.71-10-10.74,2.75-25.59,10.21-26.65,13.38C325.52,122.41,325.82,122.4,340.81,119.53ZM.26,373.2c.78-.3.1-.07.09,0-.14.57.21-1.1-.17.88S.12,373.82.26,373.2Zm606,3.16c0-2.63,1.61-3.18,2-2.1a3.81,3.81,0,0,1,.42,3.11C608.27,378.91,606.25,379,606.22,376.36ZM298.85,207.28c-1-1.61,5.33-19.73,7.88-20.62s2.2,1.17,3.36,5.48a70.33,70.33,0,0,0,4.14,11.34l4.56,6.1-9.41-1.73C305.47,207.86,299.26,208,298.85,207.28Zm-12.19-9.71c-7.76-3.38-14.82-14.15-14.82-22.63,0-8.14,3.9-18.57,6.6-17.67,1.65.55,6.75,8.66,8.22,13.07.35,1.06,2.66,1,6.72-.29,7.52-2.31,8.66-1.1,8.64,9.15,0,8-5.06,20.72-8.22,20.63A29.06,29.06,0,0,1,286.66,197.57Zm40.62-.56c-1.46-.59-5.58-3.8-9.15-7.11-5.51-5.12-6.5-7-6.5-12.39,0-7,3.71-17.39,6.22-17.39.88,0,3.52,3.26,5.86,7.25,2.85,4.86,5,7,6.58,6.36,8-3.06,9.53-2.78,10.47,1.89,1,5.08-.54,13.7-3.46,19.15C335.38,198.32,332.23,199,327.28,197Z"/><path id="path8144" class="cls-17" d="M303.91,177.87c0,15.11-7.65,27.38-17.11,27.4s-17.14-12.21-17.15-27.32v-.08c0-15.11,7.65-27.38,17.11-27.4s17.14,12.21,17.15,27.32Z"/><path id="path10092" class="cls-18" d="M279.49,154.81c-2.86,4.54-4.68,11.18-4.68,18.55,0,13.69,6.23,24.77,13.88,24.77s13.83-11.08,13.83-24.77a43.74,43.74,0,0,0-.55-7.16l-.94.5-12.33,4.72s-1.45-6.17-3.83-9.5C283.92,160.6,281.74,157.74,279.49,154.81Z"/><g id="g10107"><path id="path10103" class="cls-19" d="M340.81,179.48c0,13.07-6.84,23.68-15.29,23.7s-15.33-10.56-15.34-23.63v-.07c0-13.07,6.84-23.68,15.29-23.7s15.33,10.56,15.34,23.63Z"/><path id="path10105" class="cls-20" d="M319,159.54c-2.55,3.93-4.18,9.67-4.18,16,0,11.84,5.57,21.42,12.41,21.42s12.36-9.59,12.36-21.42a36.63,36.63,0,0,0-.49-6.2l-.84.43-11,4.09s-1.3-5.34-3.42-8.22C322.94,164.55,321,162.07,319,159.54Z"/></g><path id="path15006" d="M247.19,95.53,257.58,98l9.86,3.23L271,102l-6.45-3.59-8.43-2.51-2.87-.9h-4.84Z"/><path id="path22858" class="cls-21" d="M234,542.33c0,24.26-28.42,43.94-63.47,43.94s-63.47-19.67-63.47-43.94,28.42-43.94,63.47-43.94S234,518.07,234,542.33Z"/><path id="path3201" class="cls-22" d="M515.18,542.33c0,24.26-28.42,43.94-63.47,43.94s-63.47-19.67-63.47-43.94,28.42-43.94,63.47-43.94S515.18,518.07,515.18,542.33Z"/><path id="path8112" class="cls-10" d="M347.84,255.92l11-13.51.87.29-12,14.77Z"/></g></g></g></svg>